@startuml

abstract class AbsCollector
abstract class AbsFusion
abstract class AbsSort
abstract class AbsRender
abstract class AbsDeployer

AbsCollector <|-- CvsCollector 
AbsCollector <|-- CurlCollector 
AbsCollector <|-- JsonCollector 

AbsFusion <|-- NoneFusion 
AbsFusion <|-- UnFusioner 

AbsSort <|-- NoneSort 
AbsSort <|-- UnSorter 

AbsRender <|-- DefaultRender 
AbsRender <|-- Unrender 

AbsDeployer <|-- DefaultDeployer  

@enduml
